<?xml version="1.0" encoding="UTF-8" standalone="no"?>
<svg width="149px" height="35px" viewBox="0 0 149 35" version="1.1" xmlns="http://www.w3.org/2000/svg" xmlns:xlink="http://www.w3.org/1999/xlink">
    <!-- Generator: Sketch Beta 47 (45292) - http://www.bohemiancoding.com/sketch -->
    <title>BagsAwayLIGHT</title>
    <desc>Created with Sketch Beta.</desc>
    <defs></defs>
    <g id="Text-Styles" stroke="none" stroke-width="1" fill="none" fill-rule="evenodd">
        <g id="Storage-Landing" transform="translate(-99.000000, -26.000000)" fill-rule="nonzero">
            <g id="Group-4" transform="translate(0.000000, 1.000000)">
                <g id="BagsAwayLIGHT" transform="translate(99.000000, 25.000000)">
                    <path d="M55.8078818,27.695122 L55.5714286,26.1097561 L55.5123153,26.1097561 C54.6256158,27.2073171 53.2068966,28 51.3743842,28 C48.5369458,28 47,25.9268293 47,23.7317073 C47,20.0731707 50.1330049,18.2439024 55.2758621,18.304878 L55.2758621,18.0609756 C55.2758621,17.1463415 54.9211823,15.5609756 52.4384236,15.5609756 C51.0788177,15.5609756 49.6009852,15.9878049 48.6551724,16.597561 L47.9458128,14.2195122 C49.0098522,13.6097561 50.8423645,13 53.0295567,13 C57.5221675,13 58.8226601,15.9268293 58.8226601,19.0365854 L58.8226601,24.2195122 C58.8226601,25.5 58.8817734,26.7804878 59,27.695122 L55.8078818,27.695122 Z M55.3349754,20.6829268 C52.8522167,20.6219512 50.4285714,21.1707317 50.4285714,23.3658537 C50.4285714,24.7682927 51.3152709,25.4390244 52.4384236,25.4390244 C53.8571429,25.4390244 54.862069,24.5243902 55.2167488,23.4878049 C55.2758621,23.2439024 55.3349754,22.9390244 55.3349754,22.695122 L55.3349754,20.6829268 L55.3349754,20.6829268 Z" id="Shape" fill="#00A1DF"></path>
                    <path d="M75,13.1759531 C74.9396552,14.1143695 74.8793103,15.228739 74.8793103,17.1642229 L74.8793103,25.0234604 C74.8793103,27.8973607 74.2758621,30.0087977 72.7672414,31.2991202 C71.2586207,32.5894428 69.2068966,33 67.2758621,33 C65.4655172,33 63.5344828,32.6480938 62.2672414,31.8856305 L63.0517241,29.2463343 C63.9568966,29.7741935 65.4655172,30.3020528 67.2155172,30.3020528 C69.5689655,30.3020528 71.3189655,29.1290323 71.3189655,26.1378299 L71.3189655,24.9648094 L71.2586207,24.9648094 C70.4137931,26.1964809 68.9655172,27.0175953 67.0948276,27.0175953 C63.5344828,27.0175953 61,24.202346 61,20.2727273 C61,15.7565982 64.0775862,13 67.4568966,13 C69.6293103,13 70.8965517,13.9970674 71.6206897,15.170088 L71.6810345,15.170088 L71.8017241,13.3519062 L75,13.3519062 L75,13.1759531 Z M71.2586207,18.7478006 C71.2586207,18.4545455 71.2586207,18.1026393 71.137931,17.8093842 C70.7758621,16.5190616 69.75,15.5806452 68.1810345,15.5806452 C66.1293103,15.5806452 64.6810345,17.2815249 64.6810345,20.0967742 C64.6810345,22.4428152 65.887931,24.3782991 68.1810345,24.3782991 C69.5086207,24.3782991 70.7155172,23.4985337 71.137931,22.2668622 C71.1982759,21.914956 71.2586207,21.3870968 71.2586207,21.0351906 L71.2586207,18.7478006 Z" id="Shape" fill="#00A1DF"></path>
                    <path d="M76.7142857,24.3414634 C77.547619,24.8292683 79.0357143,25.3780488 80.3452381,25.3780488 C81.8928571,25.3780488 82.6071429,24.7073171 82.6071429,23.7926829 C82.6071429,22.8170732 82.0119048,22.3292683 80.2857143,21.7195122 C77.547619,20.7439024 76.3571429,19.2195122 76.4166667,17.5121951 C76.4166667,14.9512195 78.5,13 81.7142857,13 C83.2619048,13 84.6309524,13.4268293 85.4642857,13.8536585 L84.75,16.4146341 C84.1547619,16.0487805 83.0238095,15.5609756 81.7738095,15.5609756 C80.5238095,15.5609756 79.8095238,16.1707317 79.8095238,17.0853659 C79.8095238,18 80.4642857,18.4268293 82.25,19.097561 C84.8095238,20.0121951 86,21.3536585 86,23.4878049 C86,26.1097561 83.9761905,28 80.2857143,28 C78.5595238,28 77.0714286,27.5731707 76,27.0243902 L76.7142857,24.3414634 Z" id="Shape" fill="#00A1DF"></path>
                    <path d="M43.766438,14.8103837 C43.2238751,15.4198646 42.2593187,15.9683973 41.3550472,16.1512415 C42.1387492,15.724605 42.8018817,15.1151242 43.3444446,14.4446953 C43.6458685,14.0790068 43.8870075,13.7133183 44.0678619,13.3476298 C44.6104248,12.3724605 44.9118486,11.214447 44.9118486,9.99548533 C44.9118486,6.09480813 41.7770406,2.9255079 37.9188153,2.9255079 L34.4825834,2.9255079 L34.4825834,1.82844244 C34.4825834,0.792325056 33.6988814,0 32.6740403,0 L29.2378084,0 C28.2129673,0 27.4292653,0.792325056 27.4292653,1.82844244 L27.4292653,2.9255079 L19.5922451,2.9255079 C18.1454106,2.9255079 17,4.08352144 17,5.5462754 L17,8.89841986 L21.8830664,8.89841986 L22.5461989,8.89841986 C23.8724638,8.89841986 25.0178744,9.99548533 25.0178744,11.3363431 L25.0178744,16.1512415 L26.1632851,16.1512415 L26.5249937,16.1512415 L26.7661328,16.1512415 L27.2484109,16.1512415 C28.3335368,16.1512415 29.1775236,16.9435666 29.3583779,17.979684 L30.3229342,24.5011287 C30.5037885,25.7810384 29.5392322,27 28.2129673,27 L36.4719808,27 L39.1847955,27 C39.1847955,27 39.1847955,27 39.1847955,27 C42.982736,26.8781038 45.9969745,23.7697517 45.9969745,19.9300226 C46.0572593,17.9187359 45.2132725,16.0902935 43.766438,14.8103837 L43.766438,14.8103837 Z M33.5783118,2.9255079 L28.3335368,2.9255079 L28.3335368,1.82844244 C28.3335368,1.34085779 28.7555302,0.914221219 29.2378084,0.914221219 L32.6740403,0.914221219 C33.1563184,0.914221219 33.5783118,1.34085779 33.5783118,1.82844244 L33.5783118,2.9255079 Z M34.4825834,7.00902935 L37.9188153,7.00902935 C39.5465041,7.00902935 40.872769,8.34988713 40.872769,9.99548533 C40.872769,11.6410835 39.5465041,12.9819413 37.9188153,12.9819413 L34.4825834,12.9819413 L34.4825834,7.00902935 Z M39.0642259,22.9774266 L34.4825834,22.9774266 L34.4825834,17.0654628 L39.0642259,17.0654628 C40.6919147,17.0654628 42.0181797,18.4063205 42.0181797,20.0519187 C42.0181797,21.6365688 40.6919147,22.9774266 39.0642259,22.9774266 L39.0642259,22.9774266 Z" id="Shape" fill="#00A1DF"></path>
                    <path d="M21.5978547,9.47787611 L16.7383374,9.47787611 L15.7784327,9.47787611 L15.1184983,9.47787611 L15.1184983,8.5339233 C15.1184983,7.7079646 14.3985698,7 13.5586532,7 L11.2788797,7 L10.6189452,7 C9.77902863,7 9.05910015,7.7079646 9.05910015,8.5339233 L9.05910015,9.47787611 L3.11969012,9.47787611 L2.45975567,9.47787611 C1.13988677,9.47787611 0,10.539823 0,11.8377581 L0,24.640118 C0,25.9380531 1.07989273,27 2.45975567,27 L3.11969012,27 L10.8589214,27 C9.53905247,27 8.57914782,25.879056 8.75912994,24.5811209 L9.71903459,18.2684366 C9.89901672,17.2654867 10.7389333,16.4985251 11.818826,16.4985251 L12.4787605,16.4985251 L12.9587128,16.4985251 L15.6584446,16.4985251 C15.7184387,15.6135693 16.0784029,14.8466077 16.7383374,14.3156342 C17.2782837,13.8436578 18.0582063,13.5486726 18.8381288,13.5486726 C18.9581169,13.5486726 19.0781049,13.5486726 19.138099,13.5486726 C19.2580871,13.5486726 19.3780751,13.5486726 19.4380692,13.5486726 C21.1179023,13.5486726 22.5577593,14.9056047 22.6177533,16.5575221 L23.0977057,16.5575221 L23.9976163,16.5575221 L23.9976163,11.8967552 C24.0576103,10.539823 22.9777176,9.47787611 21.5978547,9.47787611 L21.5978547,9.47787611 Z M14.3385757,9.47787611 L10.4989571,9.47787611 L9.83902267,9.47787611 L9.83902267,8.5339233 C9.83902267,8.12094395 10.1989869,7.76696165 10.6189452,7.76696165 L11.2788797,7.76696165 L13.5586532,7.76696165 C13.9786115,7.76696165 14.3385757,8.12094395 14.3385757,8.5339233 L14.3385757,9.47787611 L14.3385757,9.47787611 Z" id="Shape" fill="#6CC04A"></path>
                    <path d="M19.0301214,14 C17.8881781,14.1714286 17.0634413,14.9714286 17,16 L17.5075304,16 L18.6494737,16 L19.3473279,16 L19.8548583,16 L20.9968016,16 C21.0602429,14.9714286 20.1720648,14.1142857 19.0301214,14" id="Shape" fill="#6CC04A"></path>
                    <path d="M29.9795266,24.5438596 L29.0263104,17.9736842 C28.8475824,16.9298246 28.0135182,16.1315789 26.94115,16.1315789 L26.7028459,16.1315789 L26.3453899,16.1315789 L25.2134456,16.1315789 L24.5581095,16.1315789 L23.6644693,16.1315789 L23.1878612,16.1315789 C23.1282852,14.4122807 21.7580369,13 20.0303326,13 C19.9111806,13 19.7920285,13 19.7324525,13 C18.7196603,13.122807 17.8260202,13.7368421 17.289836,14.5964912 C17.051532,15.0263158 16.872804,15.5175439 16.872804,16.0701754 L16.2174678,16.0701754 L13.5365473,16.0701754 L13.0599392,16.0701754 C11.987571,16.0701754 11.1535068,16.8684211 10.9747788,17.9122807 L10.0215626,24.4824561 C9.84283455,25.7719298 10.7960507,27 12.106723,27 L12.5833311,27 L18.4217803,27 L19.3154205,27 L19.7920285,27 L19.9111806,27 L20.3877887,27 L20.3877887,27 L20.9835488,27 L21.4005809,27 L21.936765,27 L22.5921011,27 L24.0219254,27 L26.4049659,27 L27.119878,27 L27.7752142,27 C29.1454624,27 30.1582546,25.8333333 29.9795266,24.5438596 L29.9795266,24.5438596 Z M21.5793089,16.0701754 L20.5069407,16.0701754 L20.0303326,16.0701754 L19.3749965,16.0701754 L18.3026282,16.0701754 L17.8260202,16.0701754 C17.8855962,14.9649123 18.7196603,14.0438596 19.7324525,13.9210526 C19.8516046,13.9210526 19.9707566,13.8596491 20.0303326,13.8596491 C21.2218528,13.8596491 22.234645,14.8421053 22.294221,16.0701754 L21.5793089,16.0701754 Z" id="Shape" fill="#F7A800"></path>
                    <path d="M148.523077,21.5269461 C147.569231,23.9820359 146.019231,25.6586826 143.753846,26.6167665 C144.35,25 144.886538,23.3832335 145.303846,21.7065868 C145.721154,20.0299401 145.959615,18.9520958 146.019231,18.4131737 C145.482692,18.3532934 145.125,18.2934132 145.065385,18.2934132 C144.648077,18.2934132 144.35,18.4131737 144.051923,18.7125749 C143.753846,19.011976 143.575,19.251497 143.515385,19.5508982 C143.455769,19.8502994 143.336538,20.1497006 143.276923,20.5688623 C143.217308,20.988024 143.157692,21.2275449 143.157692,21.2275449 C141.667308,23.6227545 140.355769,24.8802395 139.282692,24.8802395 L139.282692,24.8802395 C138.746154,24.8802395 138.448077,24.5209581 138.448077,23.742515 C138.448077,23.0239521 138.686538,22.0658683 139.103846,20.8682635 C139.521154,19.6706587 139.938462,18.7724551 140.355769,18.2335329 C140.296154,17.994012 140.057692,17.754491 139.640385,17.5748503 C139.223077,17.3353293 138.925,17.2754491 138.746154,17.2754491 C138.269231,17.2754491 137.673077,18.1137725 137.017308,19.7305389 C136.6,20.6886228 136.301923,21.5868263 136.182692,22.3652695 C135.586538,23.3832335 134.930769,24.2215569 134.275,24.8203593 C133.440385,25.5988024 132.725,25.9580838 132.128846,25.9580838 C131.532692,25.9580838 131.234615,25.5988024 131.234615,24.8802395 C131.234615,24.4011976 131.532692,23.6826347 132.069231,22.7245509 C132.605769,21.7664671 132.903846,21.1676647 132.903846,20.9281437 C132.903846,20.5688623 132.546154,20.2694611 131.890385,20.0898204 C132.963462,20.0299401 133.440385,19.5508982 133.440385,18.6526946 C133.440385,17.9341317 133.142308,17.3952096 132.605769,16.9161677 C132.069231,16.4371257 131.353846,16.257485 130.519231,16.257485 C129.207692,16.257485 127.896154,16.7964072 126.584615,17.8143713 C125.273077,18.8323353 124.2,20.0299401 123.365385,21.4670659 C123.067308,22.0658683 122.769231,22.6047904 122.590385,23.1437126 C122.173077,23.6227545 121.755769,23.8622754 121.338462,23.8622754 C120.444231,23.8622754 120.026923,23.1437126 120.026923,21.6467066 C120.026923,20.6886228 120.205769,19.7904192 120.623077,18.9520958 C120.861538,18.3532934 121.040385,18.0538922 121.040385,17.9341317 C121.040385,17.6347305 120.921154,17.3952096 120.682692,17.0958084 C120.444231,16.7964072 120.146154,16.6766467 119.669231,16.6766467 C118.596154,16.6766467 118.059615,17.9341317 118.059615,20.508982 C117.344231,22.005988 116.569231,23.3233533 115.734615,24.5209581 C114.9,25.7185629 114.244231,26.257485 113.707692,26.257485 C113.35,26.257485 113.171154,25.7185629 113.171154,24.7005988 C113.171154,22.4850299 113.409615,20.6886228 113.826923,19.251497 C113.946154,18.9520958 113.946154,18.7724551 113.946154,18.7125749 C113.946154,18.1137725 113.528846,17.8143713 112.753846,17.8143713 C112.455769,17.8143713 112.217308,17.9341317 112.038462,18.2934132 C111.859615,18.5928144 111.680769,19.3712575 111.442308,20.5688623 C109.594231,24.1616766 108.223077,25.9580838 107.209615,25.9580838 C106.613462,25.9580838 106.315385,25.3592814 106.315385,24.1616766 C106.315385,23.3233533 106.553846,22.3053892 106.971154,21.1676647 C107.388462,20.0299401 107.805769,19.1317365 108.223077,18.5329341 C108.163462,18.2934132 107.925,18.1137725 107.626923,17.9341317 C107.328846,17.754491 107.030769,17.6347305 106.851923,17.6347305 C106.375,17.6347305 105.838462,18.4730539 105.123077,20.1497006 C104.765385,20.988024 104.526923,21.8263473 104.348077,22.5449102 C103.096154,24.760479 101.963462,25.8982036 101.069231,25.8982036 C100.353846,25.8982036 100.055769,25.1197605 100.055769,23.502994 C100.055769,21.0479042 100.651923,17.6946108 101.903846,13.3832335 C103.096154,9.07185629 104.05,6.67664671 104.705769,6.19760479 C103.871154,5.41916168 103.215385,5 102.678846,5 C102.023077,5 100.771154,6.13772455 98.8634615,8.35329341 C96.9557692,10.5688623 94.8692308,13.3233533 92.6634615,16.5568862 C91.5903846,16.4371257 90.875,16.3173653 90.4576923,16.3173653 C88.6692308,16.3173653 87.4769231,16.9760479 87,18.2335329 C88.7288462,18.2335329 90.1596154,18.2934132 91.3519231,18.3532934 C88.4307692,22.8443114 87,25.8383234 87,27.3353293 C87,28.1137725 87.4769231,28.7125749 88.3711538,29.1916168 C90.0403846,25.3592814 91.7692308,21.8263473 93.5576923,18.5329341 C95.4057692,18.7724551 96.7769231,18.9520958 97.7903846,19.1317365 C97.5519231,20.6886228 97.3730769,21.9461078 97.3730769,22.9041916 C97.3730769,25.9580838 98.2673077,27.4550898 99.9961538,27.4550898 C101.069231,27.4550898 102.082692,26.9760479 103.096154,25.9580838 C103.453846,25.5988024 103.811538,25.1796407 104.109615,24.7005988 C104.169231,25.4191617 104.348077,26.0778443 104.765385,26.6167665 C105.182692,27.2155689 105.778846,27.5149701 106.434615,27.5149701 L106.434615,27.5149701 C107.805769,27.5149701 109.355769,25.8982036 111.084615,22.7245509 C111.084615,22.9640719 111.025,23.3233533 111.025,23.8622754 C111.025,24.4011976 111.025,24.7005988 111.025,24.8203593 C111.084615,26.7964072 111.740385,27.8143713 112.873077,27.8143713 C114.423077,27.8143713 116.271154,26.0179641 118.357692,22.3053892 C118.953846,23.9820359 119.848077,24.8203593 121.040385,24.8203593 C121.457692,24.8203593 121.815385,24.7005988 122.173077,24.5209581 C122.113462,24.8203593 122.113462,25.1197605 122.113462,25.4191617 C122.113462,26.257485 122.351923,26.9161677 122.828846,27.3353293 C123.305769,27.8143713 123.842308,27.994012 124.557692,27.994012 C125.273077,27.994012 125.928846,27.754491 126.584615,27.2754491 C127.240385,26.7964072 127.955769,26.0179641 128.85,24.9401198 C128.85,25.5988024 129.088462,26.257485 129.505769,26.7964072 C129.923077,27.3353293 130.519231,27.5748503 131.294231,27.5748503 C132.426923,27.5748503 133.5,27.0958084 134.573077,26.0778443 C135.109615,25.5988024 135.586538,25 136.003846,24.4011976 C136.063462,25.0598802 136.301923,25.5389222 136.778846,25.8383234 C137.315385,26.257485 137.911538,26.4371257 138.567308,26.4371257 C139.878846,26.4371257 141.309615,25.3592814 142.8,23.1437126 C142.203846,25.4191617 141.726923,26.9760479 141.369231,27.8143713 L139.759615,28.5928144 C139.401923,28.7724551 138.865385,29.011976 138.209615,29.4311377 C137.553846,29.7904192 137.076923,30.1497006 136.719231,30.508982 C136.421154,30.8083832 136.123077,31.2275449 135.825,31.6467066 C135.526923,32.1257485 135.407692,32.5449102 135.407692,33.0239521 C135.407692,33.6826347 135.586538,34.1616766 136.003846,34.5209581 C136.421154,34.8802395 136.898077,35 137.434615,35 C139.401923,35 141.369231,32.6047904 143.336538,27.8143713 C146.376923,26.4371257 148.225,24.5209581 149,22.0658683 L148.523077,21.5269461 Z M98.0884615,17.6347305 C97.85,17.5748503 97.3134615,17.5149701 96.4788462,17.3353293 C95.6442308,17.1556886 94.9884615,17.0359281 94.5115385,16.9161677 C97.2538462,12.1257485 99.4596154,9.01197605 101.248077,7.5748503 C99.8769231,10.8083832 98.8038462,14.1616766 98.0884615,17.6347305 L98.0884615,17.6347305 Z M129.684615,22.245509 L128.790385,23.3832335 C128.432692,23.8622754 128.075,24.2215569 127.776923,24.5209581 L126.882692,25.4191617 C126.525,25.7185629 126.226923,25.9580838 125.928846,26.0778443 C125.630769,26.1976048 125.392308,26.3173653 125.094231,26.3173653 C124.617308,26.3173653 124.438462,26.0179641 124.438462,25.3592814 C124.438462,23.8622754 125.094231,22.1856287 126.465385,20.2095808 C127.836538,18.2335329 129.148077,17.2754491 130.459615,17.2754491 C131.294231,17.2754491 131.711538,17.8143713 131.711538,18.8323353 C131.711538,19.251497 131.651923,19.6107784 131.532692,19.9101796 L131.473077,19.9101796 L131.413462,19.9101796 C131.294231,19.9101796 131.234615,19.9700599 131.175,20.0299401 L130.459615,20.988024 L129.684615,22.245509 Z M138.805769,32.4850299 C138.15,33.3233533 137.613462,33.742515 137.196154,33.742515 C136.838462,33.742515 136.6,33.4431138 136.6,32.9041916 C136.6,31.7065868 137.971154,30.3892216 140.773077,28.9520958 C140.117308,30.4491018 139.461538,31.6467066 138.805769,32.4850299 L138.805769,32.4850299 Z" id="Shape" fill="#6CC04A"></path>
                </g>
            </g>
        </g>
    </g>
</svg>